<?xml version="1.0" encoding="UTF-8"?>
<svg version="1.1" xmlns="http://www.w3.org/2000/svg" width="747" height="722">
<path d="M0 0 C14.5365185 6.62892629 28.18108405 15.6428851 41.90625 23.79296875 C44.80018712 25.50453217 47.69624566 27.21245244 50.59375 28.91796875 C51.55087891 29.48197388 51.55087891 29.48197388 52.52734375 30.05737305 C65.42991144 37.6446025 78.42744624 45.07160236 91.40625 52.52734375 C102.40984568 58.85422346 113.37417347 65.23844388 124.28125 71.73046875 C133.14887279 77.00008577 142.03531482 82.23437745 150.97637939 87.37844849 C152.71335863 88.37886653 154.44731988 89.38451898 156.18115234 90.39038086 C163.59148371 94.63612454 171.09649132 98.34028388 178.90625 101.79296875 C177.47605526 108.09441001 173.24632086 111.22249339 167.984375 114.75390625 C159.0983195 120.25921264 149.85347494 125.20434048 140.72314453 130.28735352 C133.39941128 134.37092596 126.13642443 138.54620265 118.90625 142.79296875 C110.79214148 147.55740512 102.62812476 152.21703364 94.40625 156.79296875 C84.20033686 162.47594172 74.09374852 168.31273074 64.015625 174.21875 C53.34704265 180.46971063 42.62515322 186.62884027 31.90625 192.79296875 C30.92366211 193.35854492 29.94107422 193.92412109 28.92871094 194.50683594 C-1.12036695 211.79296875 -1.12036695 211.79296875 -4.09375 211.79296875 C-4.09375 212.45296875 -4.09375 213.11296875 -4.09375 213.79296875 C-3.44019531 214.0146875 -2.78664063 214.23640625 -2.11328125 214.46484375 C1.94752679 216.25096889 5.5050815 218.62995598 9.21875 221.04296875 C27.89314842 232.99487436 47.29577402 243.76654815 66.5537262 254.74169922 C72.42625021 258.08852123 78.29483937 261.44220948 84.1630249 264.79663086 C85.90297692 265.79109802 87.6431084 266.7852504 89.38330078 267.77929688 C94.72802726 270.83248933 100.07193386 273.88708812 105.41285706 276.94692993 C118.0485206 284.18591078 130.70182024 291.38647847 143.44628906 298.43261719 C148.62421416 301.29599538 153.79847925 304.16579036 158.96875 307.04296875 C160.01635498 307.62191895 161.06395996 308.20086914 162.14331055 308.79736328 C179.14644534 318.27335943 179.14644534 318.27335943 180.90625 321.79296875 C181.00082468 324.55316163 181.03366962 327.28784289 181.02218628 330.048172 C181.02248498 330.91206612 181.02278368 331.77596024 181.02309144 332.66603297 C181.02273393 335.57791798 181.01504757 338.48973718 181.00732422 341.40161133 C181.00536631 343.48243682 181.00378312 345.5632627 181.00254822 347.64408875 C180.99637436 354.49191559 180.97915073 361.3396962 180.9609375 368.1875 C180.95514809 370.54187197 180.9493816 372.89624399 180.94363785 375.25061607 C180.91895468 385.04118411 180.89138639 394.83173676 180.85629082 404.62227345 C180.80603173 418.6694426 180.77266143 432.71641688 180.76300228 446.76367456 C180.75486528 456.63215882 180.72774118 466.50047999 180.68639576 476.36888045 C180.66217498 482.26729066 180.64633754 488.16544914 180.65066147 494.06391335 C180.65429173 499.61181724 180.63446311 505.15914079 180.59648323 510.70691109 C180.58662812 512.74467405 180.58531604 514.78249865 180.59311104 516.82027054 C180.60245177 519.59979699 180.58121067 522.37746221 180.55221558 525.15681458 C180.56220672 525.96576717 180.57219785 526.77471976 180.58249176 527.60818607 C180.50656457 531.64458351 180.12467298 533.52448043 177.54434395 536.69625378 C174.66521634 538.98453846 171.78077653 541.19543059 168.71875 543.23046875 C168.09145996 543.64876953 167.46416992 544.06707031 166.81787109 544.49804688 C159.33956288 549.34713936 151.44938177 553.44799644 143.58276367 557.62329102 C136.81880752 561.21416527 130.15459821 564.90357611 123.58276367 568.83300781 C116.88925916 572.82908208 110.11798695 576.68606916 103.34375 580.54296875 C93.52443477 586.13700487 83.74210322 591.78921816 73.99047852 597.50073242 C66.88042934 601.65830854 59.73721417 605.75541907 52.57998657 609.83096313 C27.55142013 624.05623149 27.55142013 624.05623149 3.1809082 639.3684082 C-5.21325434 644.91060619 -5.21325434 644.91060619 -8.44189453 644.47924805 C-11.12798862 643.78410807 -13.01108902 642.88299613 -15.375 641.44921875 C-16.20161133 640.95373535 -17.02822266 640.45825195 -17.87988281 639.94775391 C-18.77545898 639.4016748 -19.67103516 638.8555957 -20.59375 638.29296875 C-22.57768845 637.10213698 -24.56208721 635.91207185 -26.546875 634.72265625 C-27.60583984 634.08553711 -28.66480469 633.44841797 -29.75585938 632.79199219 C-35.59542763 629.29474344 -41.46996243 625.85732541 -47.34375 622.41796875 C-47.95594391 622.05914612 -48.56813782 621.70032349 -49.19888306 621.33062744 C-61.06713048 614.37451197 -72.97675278 607.49122942 -84.90087891 600.63134766 C-88.10619143 598.78580527 -91.30931792 596.93652713 -94.51171875 595.0859375 C-113.09695683 584.34686236 -131.69147483 573.61782956 -150.40625 563.10546875 C-151.00042725 562.77111816 -151.59460449 562.43676758 -152.20678711 562.09228516 C-155.05910582 560.48920983 -157.9145752 558.89227477 -160.77636719 557.30615234 C-172.25118831 550.94631388 -183.54785524 544.62648367 -194.09375 536.79296875 C-192.58041003 532.59976801 -190.02242998 531.20892803 -186.26953125 528.98828125 C-185.40126457 528.47069748 -185.40126457 528.47069748 -184.51545715 527.94265747 C-178.51052974 524.38823832 -172.40207536 521.01757931 -166.28125 517.66796875 C-154.49982909 511.17822736 -142.85218811 504.47837917 -131.26025391 497.65576172 C-127.89843631 495.67806949 -124.5336372 493.70550273 -121.16796875 491.734375 C-119.96695356 491.03085347 -118.7659445 490.32732147 -117.56494141 489.6237793 C-116.96272766 489.27100922 -116.36051392 488.91823914 -115.74005127 488.55477905 C-108.33282074 484.2153426 -100.92615622 479.87500597 -93.53103638 475.51495361 C-72.78142361 463.28187831 -51.84526763 451.42960523 -30.67553711 439.93530273 C-23.42090894 435.99077107 -16.2362433 431.93707749 -9.09375 427.79296875 C-9.60421875 427.53306152 -10.1146875 427.2731543 -10.640625 427.00537109 C-22.20582525 421.0920473 -33.53094042 414.87367643 -44.71801758 408.2734375 C-52.34186386 403.78588741 -60.03806845 399.44603006 -67.78125 395.16796875 C-75.75138317 390.76451804 -83.69980981 386.3316971 -91.59375 381.79296875 C-99.43294896 377.29011587 -107.31363334 372.86655896 -115.21875 368.48046875 C-116.35352783 367.85084229 -117.48830566 367.22121582 -118.6574707 366.57250977 C-124.42599571 363.37455042 -130.19806989 360.18309314 -135.97265625 356.99609375 C-150.80134779 348.8020995 -165.56364252 340.50816734 -180.09375 331.79296875 C-181.15674316 331.15657471 -181.15674316 331.15657471 -182.24121094 330.50732422 C-192.43804423 324.32813722 -192.43804423 324.32813722 -195.09375 317.79296875 C-195.50867301 314.87582078 -195.49919565 311.99953094 -195.47470093 309.05674744 C-195.4793809 308.18943562 -195.48406087 307.3221238 -195.48888266 306.4285298 C-195.50082694 303.52893814 -195.49137763 300.62981959 -195.48193359 297.73022461 C-195.48599951 295.648806 -195.4913415 293.56738954 -195.49786377 291.48597717 C-195.51153985 285.83736273 -195.50623766 280.18891268 -195.49672651 274.54029536 C-195.4891325 268.6302577 -195.49617472 262.72023414 -195.50088501 256.81019592 C-195.50634287 246.88637769 -195.49914965 236.96262643 -195.48486328 227.03881836 C-195.46853225 215.56211385 -195.4738285 204.08556919 -195.4903425 192.60886854 C-195.50395109 182.757357 -195.50588022 172.90589361 -195.49802649 163.05437571 C-195.49334712 157.16947818 -195.49273252 151.28465582 -195.50263596 145.39976311 C-195.51129433 139.86838347 -195.50530424 134.33721021 -195.48795319 128.80585289 C-195.48398252 126.77451673 -195.48513228 124.74316324 -195.49174118 122.71183395 C-195.49992361 119.94172269 -195.48967502 117.17227525 -195.47470093 114.40220642 C-195.48139309 113.59598231 -195.48808526 112.78975819 -195.49498022 111.95910305 C-195.44704142 107.39556065 -194.93812294 104.41625864 -192.09375 100.79296875 C-189.94677734 99.36181641 -189.94677734 99.36181641 -187.4296875 98.20703125 C-186.48544922 97.75924316 -185.54121094 97.31145508 -184.56835938 96.85009766 C-183.54548828 96.37749512 -182.52261719 95.90489258 -181.46875 95.41796875 C-172.57585861 91.14481354 -164.0177284 86.55484875 -155.59375 81.41796875 C-154.55710205 80.78584473 -153.5204541 80.1537207 -152.45239258 79.50244141 C-150.36205748 78.22554649 -148.27229165 76.94771917 -146.18310547 75.66894531 C-141.20983154 72.64898033 -136.18614791 69.71735686 -131.15625 66.79296875 C-130.17382324 66.2213501 -129.19139648 65.64973145 -128.17919922 65.06079102 C-114.29040372 56.99125368 -100.36919675 48.97753922 -86.4453125 40.96875 C-76.19191971 35.06732089 -65.95574462 29.14209353 -55.78125 23.10546875 C-45.28457249 16.88348646 -34.7390686 10.75741659 -24.09375 4.79296875 C-23.13807129 4.24842041 -23.13807129 4.24842041 -22.16308594 3.69287109 C-14.26294783 -0.78239024 -8.73943884 -3.40970531 0 0 Z " fill="#263BDA" transform="translate(383.09375,44.20703125)"/>
<path d="M0 0 C14.5365185 6.62892629 28.18108405 15.6428851 41.90625 23.79296875 C44.80018712 25.50453217 47.69624566 27.21245244 50.59375 28.91796875 C51.55087891 29.48197388 51.55087891 29.48197388 52.52734375 30.05737305 C65.42991144 37.6446025 78.42744624 45.07160236 91.40625 52.52734375 C102.40984568 58.85422346 113.37417347 65.23844388 124.28125 71.73046875 C133.14887279 77.00008577 142.03531482 82.23437745 150.97637939 87.37844849 C152.71335863 88.37886653 154.44731988 89.38451898 156.18115234 90.39038086 C163.59148371 94.63612454 171.09649132 98.34028388 178.90625 101.79296875 C177.47605526 108.09441001 173.24632086 111.22249339 167.984375 114.75390625 C159.0983195 120.25921264 149.85347494 125.20434048 140.72314453 130.28735352 C133.39941128 134.37092596 126.13642443 138.54620265 118.90625 142.79296875 C110.79214148 147.55740512 102.62812476 152.21703364 94.40625 156.79296875 C84.20033686 162.47594172 74.09374852 168.31273074 64.015625 174.21875 C47.10305338 184.12820337 30.10311777 193.89533657 13.05175781 203.56396484 C11.12332662 204.66862149 9.21162275 205.79628603 7.3046875 206.9375 C6.32757813 207.50855469 5.35046875 208.07960937 4.34375 208.66796875 C3.16619141 209.37566406 3.16619141 209.37566406 1.96484375 210.09765625 C-0.09375 210.79296875 -0.09375 210.79296875 -2.29296875 210.12109375 C-4.93310902 208.17391871 -5.28700449 205.8854932 -6.09375 202.79296875 C-7.08375 205.43296875 -8.07375 208.07296875 -9.09375 210.79296875 C-12.1696195 210.44144081 -13.82143451 210.02223437 -16.21875 208.00390625 C-19.86965535 205.19628067 -23.71696384 203.53314546 -27.90625 201.66796875 C-36.40985785 197.75925573 -44.19875715 193.21246028 -52.03417969 188.11962891 C-55.74919675 185.72662242 -59.51327936 183.41389988 -63.28125 181.10546875 C-64.03865479 180.64132568 -64.79605957 180.17718262 -65.57641602 179.69897461 C-71.02733591 176.38413802 -76.56252054 173.31436633 -82.20703125 170.33984375 C-85.76926943 168.4309854 -89.22406837 166.37652419 -92.671875 164.26953125 C-94.38099141 163.22752157 -96.10087841 162.20307925 -97.828125 161.19140625 C-98.72015625 160.66804687 -99.6121875 160.1446875 -100.53125 159.60546875 C-101.73587891 158.90357422 -101.73587891 158.90357422 -102.96484375 158.1875 C-105.09375 156.79296875 -105.09375 156.79296875 -106.66796875 155.17578125 C-108.19386632 153.47512362 -108.19386632 153.47512362 -111.46875 152.85546875 C-115.09375 151.79296875 -115.09375 151.79296875 -117.1796875 150.078125 C-121.27106118 146.86974216 -125.76134978 144.60223395 -130.34375 142.16796875 C-142.54595099 135.59778588 -154.71013102 128.93955638 -166.13671875 121.07421875 C-168.1722141 119.74159904 -170.25337454 118.61235354 -172.40625 117.48046875 C-176.29764602 115.35976087 -179.90025973 112.91287982 -183.46875 110.29296875 C-184.46648437 109.56078125 -185.46421875 108.82859375 -186.4921875 108.07421875 C-189.06959464 105.81415003 -190.52803095 103.81789535 -192.09375 100.79296875 C-191.49763916 100.50800537 -190.90152832 100.22304199 -190.28735352 99.92944336 C-175.07027537 92.60699405 -160.58026516 84.48132957 -146.18310547 75.66894531 C-141.20983154 72.64898033 -136.18614791 69.71735686 -131.15625 66.79296875 C-130.17382324 66.2213501 -129.19139648 65.64973145 -128.17919922 65.06079102 C-114.29040372 56.99125368 -100.36919675 48.97753922 -86.4453125 40.96875 C-76.19191971 35.06732089 -65.95574462 29.14209353 -55.78125 23.10546875 C-45.28457249 16.88348646 -34.7390686 10.75741659 -24.09375 4.79296875 C-23.13807129 4.24842041 -23.13807129 4.24842041 -22.16308594 3.69287109 C-14.26294783 -0.78239024 -8.73943884 -3.40970531 0 0 Z " fill="#D9BAF2" transform="translate(383.09375,44.20703125)"/>
<path d="M0 0 C0.66 0 1.32 0 2 0 C2.86431641 1.10021484 2.86431641 1.10021484 3.74609375 2.22265625 C6.25002807 5.30809352 8.78366366 7.20247304 12.0625 9.4375 C12.63395752 9.82728027 13.20541504 10.21706055 13.79418945 10.61865234 C18.12865134 13.5291314 22.60966528 16.04266609 27.24047852 18.45483398 C29.79420213 19.88476557 32.04993578 21.43474008 34.39453125 23.1796875 C40.90136812 27.79159325 47.93000299 31.3515324 55 35 C63.00491388 39.13093086 70.79107867 43.23476218 78.03466797 48.64624023 C80.53265584 50.36690393 83.12859718 51.06367299 86 52 C87.21290023 52.86113102 88.39765273 53.762403 89.5625 54.6875 C94.03098053 58.20396261 98.88924594 60.71842064 103.9140625 63.3515625 C106.31643525 64.63485529 108.59597226 65.95463915 110.875 67.4375 C113.79393755 69.32088087 116.79446901 70.9484368 119.88305664 72.53735352 C126.85876522 76.13421751 133.4050262 80.14896709 139.9375 84.5 C147.21893254 89.33697635 154.54977015 93.53076399 162.43359375 97.29296875 C169.57770613 100.71243984 176.51566515 104.44344037 183 109 C174.44395644 118.04541136 163.14620302 123.55883363 152.19335938 129.18701172 C145.38385097 132.71639691 138.92921395 136.67748765 132.47265625 140.80859375 C128.98503995 143.03519371 125.39981907 145.03183051 121.74609375 146.97265625 C119.75083345 148.07247219 119.75083345 148.07247219 117.375 150.3125 C114.17558296 152.58577 111.82950607 152.30035342 108 152 C107.835 152.7425 107.67 153.485 107.5 154.25 C105.28578032 158.30940275 102.12490289 159.19917749 98 161 C96.18096452 161.84015883 94.368424 162.69451644 92.5625 163.5625 C91.29599609 164.15224609 91.29599609 164.15224609 90.00390625 164.75390625 C87.67679903 165.90520552 87.67679903 165.90520552 87 169 C92.2654414 168.5109175 96.03569552 165.7142303 100.375 162.9375 C107.390053 158.53506823 114.48486648 154.51210871 121.86328125 150.75390625 C125.0424841 149.09397964 125.0424841 149.09397964 127.70703125 146.80078125 C130 145 130 145 133.375 144.625 C137.40606029 143.92998961 138.87214509 142.56549007 141.77734375 139.8125 C145.19081133 137.02893417 149.05558707 135.03031725 152.93774414 132.98022461 C155.98462347 131.32833268 158.24383413 129.75298081 160.69140625 127.2734375 C163 125 163 125 166.8125 124.6875 C167.864375 124.790625 168.91625 124.89375 170 125 C170.12375 124.195625 170.2475 123.39125 170.375 122.5625 C170.58125 121.716875 170.7875 120.87125 171 120 C173.3396669 118.83016655 174.83391527 118.8338759 177.4375 118.8125 C178.21996094 118.79832031 179.00242187 118.78414063 179.80859375 118.76953125 C182 119 182 119 185 121 C185.29657709 123.69261788 185.3955386 126.15588683 185.36749268 128.85105896 C185.37239594 130.08163823 185.37239594 130.08163823 185.37739825 131.33707768 C185.38471433 134.10177504 185.37048823 136.86594977 185.35644531 139.63061523 C185.35723569 141.60631399 185.35933143 143.5820126 185.36264038 145.55770874 C185.3677886 150.93579306 185.35421028 156.31368707 185.33711338 161.69174075 C185.3221133 167.31044483 185.32325224 172.92914607 185.32244873 178.54786682 C185.31875218 187.98612734 185.30376616 197.42431532 185.28125 206.86254883 C185.25238501 218.98697288 185.24202821 231.11133843 185.2375679 243.23579311 C185.23359039 253.64435521 185.22108686 264.05290453 185.20722103 274.46145749 C185.20311819 277.81415799 185.20019448 281.16685802 185.19742584 284.51955986 C185.19253814 289.78324882 185.18234363 295.04690219 185.16798782 300.31057358 C185.16345883 302.24599321 185.16062474 304.18141763 185.15958023 306.11684227 C185.15783876 308.7519166 185.14996694 311.38690139 185.14044189 314.0219574 C185.14130838 314.79393524 185.14217486 315.56591308 185.1430676 316.3612842 C185.12590618 319.5106377 185.00363732 321.98908804 184 325 C178.18312362 323.37089129 173.18624467 320.53718295 167.9375 317.625 C166.47884521 316.8220752 166.47884521 316.8220752 164.99072266 316.00292969 C155.91415159 310.98959631 146.91030278 305.85157027 137.92285156 300.68066406 C114.92562431 287.4570663 91.81355511 274.44781242 68.625 261.5625 C67.50633545 260.94052734 66.3876709 260.31855469 65.23510742 259.67773438 C59.53129982 256.50854271 53.82181573 253.35035754 48.1015625 250.2109375 C37.00280271 244.10772256 25.97478317 237.91280107 15.125 231.375 C14.17399414 230.8070874 13.22298828 230.2391748 12.24316406 229.65405273 C0.40428082 222.43155537 0.40428082 222.43155537 -2 216 C-2.19029899 213.1329136 -2.26974642 210.36412098 -2.25396729 207.49755859 C-2.25708727 206.63125006 -2.26020725 205.76494152 -2.26342177 204.87238121 C-2.27141048 201.96433113 -2.2650747 199.0564892 -2.25878906 196.1484375 C-2.26149853 194.06569293 -2.26505922 191.98294931 -2.26940918 189.90020752 C-2.27854063 184.2391755 -2.27498579 178.57821624 -2.26865101 172.91718292 C-2.26359495 166.99866029 -2.26828137 161.08014397 -2.27142334 155.16162109 C-2.27506413 145.22166829 -2.27026091 135.28174518 -2.26074219 125.34179688 C-2.24985743 113.84242307 -2.25338293 102.34312018 -2.264395 90.84374809 C-2.27346464 80.97871226 -2.27475473 71.11369779 -2.26951766 61.24865913 C-2.26639619 55.3531592 -2.26599349 49.45769263 -2.27259064 43.56219482 C-2.27835877 38.02021711 -2.27437693 32.47833102 -2.26280212 26.93636322 C-2.26015269 24.89976911 -2.26092544 22.86316731 -2.26532745 20.82657623 C-2.27077312 18.05175975 -2.26396063 15.27723893 -2.25396729 12.50244141 C-2.25842873 11.69194021 -2.26289017 10.88143902 -2.26748681 10.04637718 C-2.24070653 6.22623672 -2.16822599 3.23560976 0 0 Z " fill="#8672EF" transform="translate(190,146)"/>
<path d="M0 0 C5.45299918 2.92124956 10.71676513 6.05952563 15.9375 9.375 C26.8387192 16.2624691 38.05927721 22.60504495 49.25280762 29.00140381 C52.14066067 30.65193702 55.02719687 32.30477176 57.9140625 33.95703125 C63.17398576 36.96576654 68.43585547 39.97107174 73.69885254 42.97442627 C78.96888249 45.98184554 84.23735212 48.99198951 89.50537109 52.00292969 C91.83351166 53.33355125 94.16198103 54.66359471 96.49072266 55.99316406 C101.78178627 59.01450239 107.07107427 62.03877203 112.35250854 65.07691956 C115.31727816 66.78229584 118.28330236 68.48548021 121.25 70.1875 C121.83062195 70.5206723 122.4112439 70.8538446 123.00946045 71.19711304 C132.11697963 76.41672635 141.31840939 81.43777422 150.57324219 86.39013672 C159.59723025 91.25192152 168.32953451 96.53716884 177 102 C167.37276789 112.13763381 154.14719733 118.22953409 141.9128418 124.65820312 C140.90390869 125.19251953 139.89497559 125.72683594 138.85546875 126.27734375 C137.94434326 126.75421631 137.03321777 127.23108887 136.09448242 127.72241211 C133.86470468 128.82834164 133.86470468 128.82834164 133 131 C132.34 131 131.68 131 131 131 C130.67 131.66 130.34 132.32 130 133 C128 133.66666667 126 134.33333333 124 135 C122.33079121 135.94256317 120.66306286 136.88797448 119.00732422 137.85400391 C116.14478421 139.48824895 113.21676232 140.98680647 110.28930664 142.50073242 C102.64966911 146.45381416 95.22766594 150.56730789 87.9453125 155.1484375 C79.16492587 160.6682031 70.06993389 165.62604053 60.97607422 170.60302734 C54.80366117 173.98863769 48.67137845 177.4386333 42.5625 180.9375 C41.69963379 181.43161377 40.83676758 181.92572754 39.94775391 182.43481445 C35.437574 185.02098061 30.93249231 187.61586193 26.4296875 190.21484375 C0.76557119 205 0.76557119 205 -3 205 C-6.96719963 196.05375176 -6.40065938 186.93612017 -6.34057617 177.35327148 C-6.3397291 175.46034255 -6.34020661 173.56741262 -6.34190369 171.67448425 C-6.34276192 166.55525861 -6.325164 161.43624527 -6.30418181 156.31706882 C-6.28538632 150.9599305 -6.28366231 145.60278693 -6.28010559 140.24562073 C-6.27079357 130.10982385 -6.24619117 119.97412442 -6.21605712 109.83837038 C-6.18248689 98.29546879 -6.1660205 86.75256246 -6.15097082 75.20962417 C-6.11964089 51.47302882 -6.06689676 27.73651988 -6 4 C-3.36 4 -0.72 4 2 4 C2 3.34 2 2.68 2 2 C1.34 2 0.68 2 0 2 C0 1.34 0 0.68 0 0 Z " fill="#5A57EE" transform="translate(383,260)"/>
<path d="M0 0 C0.33 0 0.66 0 1 0 C1.00496522 1.55328475 1.00496522 1.55328475 1.01003075 3.13794899 C1.09099828 28.3259199 1.18330568 53.51382975 1.28752708 78.70171547 C1.33766464 90.8823483 1.38410748 103.06297436 1.421875 115.24365234 C1.45479966 125.85940896 1.49463358 136.47511323 1.54279006 147.09081209 C1.56805024 152.71255353 1.58983303 158.33426026 1.60334396 163.95604324 C1.61616856 169.24684448 1.63822748 174.53752666 1.66738319 179.82826233 C1.67645581 181.77047311 1.68214847 183.71270306 1.68421364 185.65493393 C1.68753836 188.30668181 1.70302166 190.95809259 1.7215271 193.60977173 C1.718625 194.76251349 1.718625 194.76251349 1.71566427 195.93854296 C1.76148973 200.33106575 2.37878139 203.91540321 4 208 C3.34 208 2.68 208 2 208 C2 208.66 2 209.32 2 210 C3.98 210.99 3.98 210.99 6 212 C6 212.66 6 213.32 6 214 C6.66 214 7.32 214 8 214 C8 214.66 8 215.32 8 216 C5.36 216 2.72 216 0 216 C0.00184359 216.98675122 0.00368717 217.97350245 0.00558662 218.99015522 C0.04994183 242.97530704 0.08283064 266.96045356 0.10362434 290.9456377 C0.11394672 302.54458382 0.12802538 314.14350289 0.15087891 325.74243164 C0.1707834 335.84942365 0.18370944 345.95639606 0.18817699 356.06340712 C0.19078936 361.41736029 0.19694946 366.7712574 0.21146011 372.12519264 C0.22499759 377.16068266 0.22923043 382.19609333 0.22621536 387.23159981 C0.22676725 389.08317241 0.23076745 390.93474757 0.23841095 392.78630447 C0.24831225 395.30769294 0.2459866 397.82877897 0.24050903 400.35017395 C0.24633472 401.0884975 0.2521604 401.82682105 0.25816262 402.58751804 C0.23634104 406.28528774 0.10909672 407.83635492 -2 411 C-2.33 347.64 -2.66 284.28 -3 219 C-5.64458379 217.67770811 -7.67761301 217.90322806 -10.625 217.9375 C-11.62789063 217.94652344 -12.63078125 217.95554687 -13.6640625 217.96484375 C-14.43492187 217.97644531 -15.20578125 217.98804688 -16 218 C-16.33 219.65 -16.66 221.3 -17 223 C-17.60328125 223.08636719 -18.2065625 223.17273438 -18.828125 223.26171875 C-19.62734375 223.40222656 -20.4265625 223.54273438 -21.25 223.6875 C-22.43335938 223.87892578 -22.43335938 223.87892578 -23.640625 224.07421875 C-26.19217515 224.84483182 -26.19217515 224.84483182 -27.796875 227.296875 C-30.69732091 230.85557814 -33.97228518 232.47202845 -38 234.5625 C-42.67693331 237.01534818 -46.25331365 239.23680842 -50 243 C-52.21009642 243.67106564 -54.29838004 243.92788866 -56.5859375 244.21484375 C-59.39877482 245.12969861 -61.06233679 246.68606859 -63.25488281 248.62036133 C-66.57625778 251.24614336 -70.41669331 252.98436046 -74.1875 254.875 C-80.64927157 258.17896313 -86.80069984 261.5884323 -92.7734375 265.72265625 C-95.19593354 267.11240398 -97.24993094 267.60643888 -100 268 C-100 266.68 -100 265.36 -100 264 C-96.35488866 260.49743491 -91.36225764 258.70240807 -86.6875 257 C-82.82062422 255.63640411 -82.82062422 255.63640411 -80.4375 252.375 C-79 250 -79 250 -77.046875 249.4140625 C-75.4467663 249.13324872 -73.84650037 248.85332966 -72.24609375 248.57421875 C-69.47329647 247.8653471 -67.88010748 246.40473216 -65.8203125 244.46875 C-63.42242037 242.53397008 -60.85730811 241.235717 -58.125 239.8125 C-53.0397634 237.1548311 -48.20130925 234.28712967 -43.375 231.1875 C-37.49086157 227.41745768 -31.47558409 224.10829055 -25.25 220.9375 C-10.62881428 213.89155636 -10.62881428 213.89155636 -1.61521375 201.22086525 C-0.62069259 197.63073501 -0.57735031 194.18923944 -0.60127258 190.4831543 C-0.59462576 189.66369198 -0.58797893 188.84422966 -0.58113068 187.99993515 C-0.56258922 185.27456739 -0.56509996 182.54964208 -0.56762695 179.82421875 C-0.55860439 177.86246627 -0.54827595 175.90071943 -0.53674316 173.9389801 C-0.50920527 168.62762479 -0.49989297 163.31637655 -0.49388909 158.00495911 C-0.48449712 152.44890108 -0.45829302 146.89292276 -0.43388367 141.33691406 C-0.39023773 130.82219563 -0.36167901 120.30749268 -0.33856028 109.79271126 C-0.31149844 97.81930978 -0.2675875 85.84598856 -0.22227156 73.87264442 C-0.12945254 49.24847315 -0.05775919 24.62427671 0 0 Z " fill="#222360" transform="translate(377,48)"/>
<path d="M0 0 C1.32 0.66 2.64 1.32 4 2 C-0.11076769 6.67662235 -4.58631862 9.12632198 -10.125 11.875 C-16.61473807 15.17554839 -22.78136529 18.57504926 -28.7734375 22.72265625 C-31.19593354 24.11240398 -33.24993094 24.60643888 -36 25 C-36 23.68 -36 22.36 -36 21 C-32.35488866 17.49743491 -27.36225764 15.70240807 -22.6875 14 C-18.82062422 12.63640411 -18.82062422 12.63640411 -16.4375 9.375 C-15 7 -15 7 -13.046875 6.4140625 C-11.46472491 6.1364004 -9.88134887 5.86564148 -8.296875 5.6015625 C-4.64361623 4.64475663 -2.67269129 2.60416074 0 0 Z " fill="#2D3FDB" transform="translate(313,291)"/>
<path d="M0 0 C0.53625 0.226875 1.0725 0.45375 1.625 0.6875 C-2.13668374 5.79632293 -5.83281813 8.43566971 -11.4375 11.3125 C-16.8610241 14.05507567 -16.8610241 14.05507567 -21.51171875 17.8828125 C-23.94734131 20.24184315 -25.80424163 20.46310595 -29.125 20.9375 C-30.10984375 21.08703125 -31.0946875 21.2365625 -32.109375 21.390625 C-33.23085938 21.53757812 -33.23085938 21.53757812 -34.375 21.6875 C-34.705 20.6975 -35.035 19.7075 -35.375 18.6875 C-34.7665625 18.37039063 -34.158125 18.05328125 -33.53125 17.7265625 C-26.84009852 14.16450833 -20.41976317 10.28625571 -14.03515625 6.20361328 C-3.54318439 -0.46620847 -3.54318439 -0.46620847 0 0 Z " fill="#2036C6" transform="translate(350.375,271.3125)"/>
<path d="M0 0 C1.65 0.66 3.3 1.32 5 2 C3.52291036 6.59888193 -0.23717705 8.29917487 -4.1875 10.5625 C-4.83525391 10.94857422 -5.48300781 11.33464844 -6.15039062 11.73242188 C-17.7995944 18.56367324 -17.7995944 18.56367324 -24 18 C-24 16.68 -24 15.36 -24 14 C-17.25 11 -17.25 11 -15 11 C-14.64035156 10.05640625 -14.64035156 10.05640625 -14.2734375 9.09375 C-12.65308477 6.42961177 -11.59665569 6.25031838 -8.625 5.5 C-4.77856091 4.37889617 -2.55351797 3.21965309 0 0 Z " fill="#1C34C5" transform="translate(223,342)"/>
<path d="M0 0 C1.28777344 0.10441406 1.28777344 0.10441406 2.6015625 0.2109375 C3.91253906 0.29214844 3.91253906 0.29214844 5.25 0.375 C5.90226562 0.44460938 6.55453125 0.51421875 7.2265625 0.5859375 C3.56507048 4.77191351 -0.92996324 7.32421341 -5.6484375 10.1484375 C-6.43863281 10.62990234 -7.22882813 11.11136719 -8.04296875 11.60742188 C-19.58103722 18.5859375 -19.58103722 18.5859375 -24.7734375 18.5859375 C-24.72265625 16.828125 -24.72265625 16.828125 -23.7734375 14.5859375 C-21.38289208 13.12979763 -19.10381885 11.89947296 -16.5859375 10.7109375 C-12.31519113 8.68597873 -8.84407654 6.86858273 -5.62109375 3.3515625 C-2.7734375 0.5859375 -2.7734375 0.5859375 0 0 Z " fill="#1D34C4" transform="translate(257.7734375,322.4140625)"/>
<path d="M0 0 C3.3661366 0.67556864 6.03230839 1.95539037 9.04296875 3.58984375 C10.0268457 4.1223877 11.01072266 4.65493164 12.02441406 5.20361328 C13.06823242 5.7757959 14.11205078 6.34797852 15.1875 6.9375 C16.78996582 7.81124268 16.78996582 7.81124268 18.42480469 8.70263672 C24.91591823 12.25942458 31.36621617 15.8788488 37.75 19.625 C38.43344482 20.02581787 39.11688965 20.42663574 39.82104492 20.83959961 C42.39381856 22.36842528 44.88476086 23.91287763 47.2734375 25.71875 C49.05940487 27.19414384 49.05940487 27.19414384 51.875 27.875 C55.78242094 29.28167154 57.93460212 31.22654478 61 34 C60.01 34.495 60.01 34.495 59 35 C56.61969267 33.96535975 54.40180812 32.85986537 52.125 31.625 C51.39756592 31.23578369 50.67013184 30.84656738 49.9206543 30.44555664 C41.21293242 25.69902924 32.76983314 20.49138883 24.32666016 15.29345703 C16.30789993 10.36130564 8.19944761 5.62447291 0 1 C0 0.67 0 0.34 0 0 Z " fill="#2D3FC9" transform="translate(221,169)"/>
<path d="M0 0 C11.61443488 3.47380379 22.09542404 11.17926637 32 18 C31.34 18.33 30.68 18.66 30 19 C27.88037109 18.10717773 27.88037109 18.10717773 25.2734375 16.68359375 C24.32339844 16.16603516 23.37335938 15.64847656 22.39453125 15.11523438 C21.39808594 14.56158203 20.40164063 14.00792969 19.375 13.4375 C17.91513672 12.64762695 17.91513672 12.64762695 16.42578125 11.84179688 C10.64507098 8.66357326 4.97995684 5.36669271 0 1 C0 0.67 0 0.34 0 0 Z " fill="#2D3FC8" transform="translate(303,216)"/>
<path d="M0 0 C0.33 0 0.66 0 1 0 C1.04898437 0.86882812 1.09796875 1.73765625 1.1484375 2.6328125 C1.22320312 3.78523437 1.29796875 4.93765625 1.375 6.125 C1.47941406 7.83042969 1.47941406 7.83042969 1.5859375 9.5703125 C1.99443876 12.95393616 2.80967569 15.81612441 4 19 C0.5980513 21.09350689 -2.05272412 21.17942163 -6 21 C-5.38125 20.13375 -4.7625 19.2675 -4.125 18.375 C-0.87212339 12.80358368 -0.66394423 6.29873412 0 0 Z " fill="#2C3FC6" transform="translate(377,237)"/>
<path d="M0 0 C4.92804926 2.71545571 9.50655364 5.60698948 14 9 C14 9.33 14 9.66 14 10 C9.86314908 10.33094807 7.40006625 10.19262449 3.625 8.375 C1 6 1 6 0.125 2.75 C0.08375 1.8425 0.0425 0.935 0 0 Z " fill="#9D77E1" transform="translate(195,151)"/>
<path d="M0 0 C4.57798244 1.27757649 7.32611916 3.06089533 11 6 C11.969375 6.309375 12.93875 6.61875 13.9375 6.9375 C17.83317352 8.2890602 19.95600566 10.24590988 23 13 C22.01 13.495 22.01 13.495 21 14 C19.27587891 13.33496094 19.27587891 13.33496094 17.2265625 12.234375 C16.4840625 11.83863281 15.7415625 11.44289062 14.9765625 11.03515625 C14.20054687 10.61105469 13.42453125 10.18695313 12.625 9.75 C11.85671875 9.34136719 11.0884375 8.93273437 10.296875 8.51171875 C2.61801545 4.38001404 2.61801545 4.38001404 0 2 C0 1.34 0 0.68 0 0 Z " fill="#2439C5" transform="translate(259,190)"/>
<path d="M0 0 C6.81520452 0.29631324 11.38350782 3.30464197 17 7 C16.01 7.66 15.02 8.32 14 9 C9.41587889 8.02465508 7.14877286 6.35869105 4 3 C1.86690808 1.76487921 1.86690808 1.76487921 0 1 C0 0.67 0 0.34 0 0 Z " fill="#5F5BEE" transform="translate(206,161)"/>
<path d="M0 0 C0.33 0.99 0.66 1.98 1 3 C1.66 3.33 2.32 3.66 3 4 C-1.75 6.875 -1.75 6.875 -4 8 C-4 7.34 -4 6.68 -4 6 C-5.32 5.34 -6.64 4.68 -8 4 C-5.33440687 2.22293791 -2.9719385 1.12451727 0 0 Z " fill="#5B58EB" transform="translate(232,338)"/>
<path d="M0 0 C2.375 0.3125 2.375 0.3125 5 1 C7 4 7 4 7 7 C4.625 6.6875 4.625 6.6875 2 6 C0 3 0 3 0 0 Z " fill="#685FEE" transform="translate(190,363)"/>
<path d="M0 0 C5.47932789 1.54545146 10.11429181 4.15543212 15 7 C15 7.66 15 8.32 15 9 C10.54154289 8.49046204 8.3769828 6.87043538 5 4 C4.071875 3.443125 3.14375 2.88625 2.1875 2.3125 C1.465625 1.879375 0.74375 1.44625 0 1 C0 0.67 0 0.34 0 0 Z " fill="#3544CB" transform="translate(282,204)"/>
<path d="M0 0 C1.67542976 0.28604898 3.34385343 0.61781233 5 1 C5.33 1.99 5.66 2.98 6 4 C4.35 4.66 2.7 5.32 1 6 C0.34 4.35 -0.32 2.7 -1 1 C-0.67 0.67 -0.34 0.34 0 0 Z " fill="#1831C4" transform="translate(457,422)"/>
<path d="M0 0 C2.0625 0.4375 2.0625 0.4375 4 1 C3.67 2.32 3.34 3.64 3 5 C1.35 5.33 -0.3 5.66 -2 6 C-1.125 1.125 -1.125 1.125 0 0 Z " fill="#2C3FDB" transform="translate(267,317)"/>
</svg>
